# xmcd
#
# Track frame offsets: 
#        150
#        15662
#        28675
#        38387
#        71537
#        97375
#        105250
#        142000
#        151375
#        162025
#        172337
#        187262
#        201925
#        214487
#        225850
#        239950
#        254762
#        264512
#        275650
#        285437
#
# Disc length: 3944 seconds
#
# Revision: 0
# Processed by: cddbd v1.5.1PL2 Copyright (c) Steve Scherf et al.
# Submitted via: ExactAudioCopy v0.95b2
#
DISCID=300f6614
DTITLE=Canned Heat - Canned Heat and Rufus Thomas
DYEAR=1997
DGENRE=Blues
TTITLE0=On the Road Again
TTITLE1=Same All Over
TTITLE2=Rolling and Tumbling
TTITLE3=Bullfrog Blues
TTITLE4=Dust My Broom
TTITLE5=Pretty Thing
TTITLE6=Wish You Would (Strut My Stuff)
TTITLE7=Big Road Blues
TTITLE8=Spoonful
TTITLE9=I Got My Eyes On You
TTITLE10=The Funky Chicken part 1
TTITLE11=Do the Funky Penquin
TTITLE12=The Dog
TTITLE13=Walking the Dog part 1
TTITLE14=The Breakdown part 1
TTITLE15=Do the Push and Pull part 1
TTITLE16=The Funky Chicken part 2
TTITLE17=The Breakdown part 2
TTITLE18=Walking the Dog part 2
TTITLE19=Do the Push and Pull  part 2
EXTD=
EXTT0=
EXTT1=
EXTT2=
EXTT3=
EXTT4=
EXTT5=
EXTT6=
EXTT7=
EXTT8=
EXTT9=
EXTT10=
EXTT11=
EXTT12=
EXTT13=
EXTT14=
EXTT15=
EXTT16=
EXTT17=
EXTT18=
EXTT19=
PLAYORDER=
